# xmcd CD database file
#
# Track frame offsets:
#	150
#	40830
#	83322
#	124988
#	166431
#	193372
#
# Disc length: 2892 seconds
#
# Revision: 1
# Processed by: cddbd v1.5.2PL0 Copyright (c) Steve Scherf et al.
# Submitted via: CDex 1.70beta2
#
DISCID=490b4a06
DTITLE=Billy Bontas - Manfred P. Weinberger Quartet - Stories
DYEAR=2009
DGENRE=Jazz
TTITLE0=Big Bear
TTITLE1=Nothing Similar
TTITLE2=Sense of Colour
TTITLE3=Reflexion
TTITLE4=Invitia
TTITLE5=Beautiful Story
EXTD=YEAR: 2009
EXTT0=
EXTT1=
EXTT2=
EXTT3=
EXTT4=
EXTT5=
PLAYORDER=
